<svg width="167" height="25" viewBox="0 0 167 25" fill="none" xmlns="http://www.w3.org/2000/svg">
<path d="M16.7124 12.6409C16.7124 12.771 16.7124 12.9228 16.6908 13.0529C16.6691 13.183 16.6691 13.3131 16.6691 13.4432C16.5827 14.1587 16.4097 14.8526 16.1503 15.503C15.8692 16.1752 15.5449 16.7823 15.1342 17.3461C14.7234 17.9098 14.2478 18.4302 13.7073 18.8855C13.1668 19.3625 12.5615 19.7528 11.9345 20.0564C10.5941 20.6852 9.18883 20.9454 7.71871 20.8369C6.24859 20.7285 4.88657 20.2732 3.67589 19.4276C2.48682 18.647 1.57881 17.6062 0.930225 16.327C0.281644 15.0477 -0.0210275 13.7034 0.000591888 12.2723C0.0438306 11.3833 0.195166 10.5377 0.497838 9.69211C0.800509 8.86817 1.21128 8.0876 1.75176 7.37207C2.42196 6.50477 3.2435 5.78925 4.21637 5.24718C5.18924 4.70512 6.20535 4.3582 7.30794 4.2281C8.38891 4.09801 9.46988 4.16305 10.5508 4.46661C11.6318 4.77016 12.5831 5.24718 13.4478 5.91934H13.4695V1.60451C13.4695 1.14918 13.6208 0.780572 13.9451 0.455334C14.2478 0.151778 14.6369 0 15.0909 0C15.5449 0 15.9341 0.151778 16.2367 0.477016C16.561 0.780572 16.7124 1.17086 16.7124 1.62619V12.294V12.6409ZM12.2155 15.8933C12.8209 15.1778 13.21 14.3755 13.383 13.4649C13.5559 12.5542 13.5127 11.6652 13.1884 10.7762C12.9506 10.1041 12.5831 9.49696 12.0858 8.97658C11.6102 8.4562 11.0265 8.06592 10.3995 7.78404C9.75093 7.48049 9.05911 7.35039 8.34567 7.35039C7.63223 7.35039 6.96203 7.50217 6.31345 7.78404C6.0324 7.91414 5.77297 8.06592 5.51353 8.21769C5.2541 8.36947 5.01629 8.56461 4.80009 8.75976C4.34609 9.21509 4.00018 9.73547 3.71913 10.2992C3.43807 10.9063 3.28674 11.5134 3.2435 12.1856C3.22188 12.7493 3.26512 13.3131 3.41645 13.8768C3.56779 14.4406 3.8056 14.961 4.15151 15.4163C4.49742 15.9367 4.90819 16.3703 5.40544 16.7173C5.90268 17.0642 6.42155 17.3244 7.00527 17.4762C7.56737 17.6062 8.12948 17.6713 8.7132 17.6279C9.29693 17.5846 9.85903 17.4545 10.3995 17.216C10.2482 17.3027 10.1185 17.3677 9.98874 17.4111C9.85903 17.4761 9.70769 17.5195 9.55636 17.5846C9.88065 17.4545 10.2266 17.3244 10.5725 17.1726C11.1994 16.8474 11.7615 16.4137 12.2155 15.8933Z" fill="#040200"/>
<path d="M36.5151 12.5109C36.4935 12.9662 36.3205 13.3348 36.0179 13.66C35.6936 13.9636 35.3044 14.1371 34.872 14.1587H23.3273C23.3921 14.3756 23.5002 14.5924 23.6083 14.8092C23.6948 14.9827 23.7813 15.1561 23.8678 15.3079C23.9542 15.4597 24.0407 15.6115 24.1272 15.7849C24.0407 15.6548 23.9542 15.5031 23.8894 15.373C23.8245 15.2429 23.7597 15.1128 23.6732 14.961C23.9542 15.4597 24.3002 15.915 24.7325 16.3053C25.1649 16.6956 25.6406 17.0208 26.181 17.2377C26.7431 17.4762 27.3917 17.628 28.0835 17.6496H28.1916C28.6457 17.6496 29.0132 17.8014 29.3159 18.105C29.6185 18.4085 29.7699 18.7771 29.7699 19.2325C29.7699 19.6878 29.6185 20.0564 29.3159 20.3816C29.0132 20.6852 28.6457 20.8587 28.1916 20.8587C28.0835 20.8587 27.9971 20.8587 27.889 20.8587C27.7809 20.8587 27.6944 20.8587 27.6079 20.837C26.8729 20.7936 26.181 20.6418 25.4892 20.4033C24.7974 20.1648 24.1488 19.8396 23.5651 19.4493C22.9598 19.059 22.4193 18.6037 21.9436 18.0616C21.4464 17.5195 21.0356 16.9124 20.7113 16.262C20.0628 14.961 19.7817 13.595 19.8466 12.1423C19.8898 10.6895 20.3006 9.34521 21.0789 8.10931C21.1437 8.00089 21.2302 7.89248 21.2951 7.78407C21.3815 7.67565 21.4464 7.56724 21.5329 7.45883C22.1815 6.59153 22.9598 5.876 23.8678 5.33394C24.7758 4.79187 25.7703 4.42327 26.808 4.22813C28.1484 4.0113 29.4456 4.11971 30.7427 4.53168C32.0399 4.94365 33.1641 5.63749 34.0937 6.61321C34.8504 7.39378 35.4558 8.28277 35.8665 9.25848C36.2989 10.2559 36.4935 11.2966 36.4935 12.3808V12.4241V12.5109H36.5151ZM25.4244 8.15267C24.9271 8.47791 24.4947 8.88988 24.1272 9.3669C23.7597 9.84391 23.4786 10.3643 23.3057 10.9064H33.056C32.9695 10.6462 32.8398 10.3643 32.6885 10.0824C32.3642 9.45363 31.9102 8.93324 31.3481 8.47791C30.786 8.04426 30.159 7.71902 29.4672 7.52388C28.797 7.32873 28.1052 7.28537 27.3917 7.39378C26.6783 7.52388 26.0297 7.76239 25.4244 8.15267Z" fill="#040200"/>
<path d="M51.7785 4.11969C52.2325 4.11969 52.6216 4.27146 52.9243 4.5967C53.227 4.92194 53.3999 5.31223 53.3999 5.74588V11.6869V12.0989V19.2541V19.2758V19.3842V19.4709V19.5577C53.3783 19.5794 53.3783 19.601 53.3783 19.6444C53.3783 19.6661 53.3783 19.6661 53.3567 19.6878C53.3567 19.6878 53.3351 19.7095 53.3351 19.7311C53.3351 19.7528 53.3351 19.7745 53.3134 19.7745C53.3134 19.8179 53.3134 19.8612 53.2918 19.8829C53.2918 19.9046 53.2918 19.9263 53.2702 19.9263C53.2702 19.9696 53.2486 19.9913 53.227 20.0347V20.0564C53.2053 20.0781 53.2053 20.0997 53.1837 20.0997C53.1621 20.0997 53.1621 20.1431 53.1405 20.1431V20.1648C53.1189 20.1865 53.1189 20.2082 53.0972 20.2082C53.0972 20.2298 53.0756 20.2515 53.0324 20.2515V20.2732L52.9243 20.3816L52.881 20.425L52.8378 20.4683C52.7946 20.49 52.7513 20.5117 52.7081 20.5768C52.6649 20.5984 52.6432 20.5984 52.6432 20.6201C52.6432 20.6201 52.6216 20.6418 52.5784 20.6635H52.5351C52.4919 20.7069 52.4703 20.7069 52.427 20.7069C52.4054 20.7069 52.4054 20.7069 52.4054 20.7285C52.3622 20.7285 52.3406 20.7285 52.3406 20.7502C52.3406 20.7502 52.3189 20.7719 52.2757 20.7719L52.2325 20.8153C52.2108 20.8153 52.2108 20.8153 52.1892 20.8369C52.1892 20.8369 52.1676 20.8586 52.1244 20.8586H52.0811C52.0595 20.8586 52.0595 20.8586 52.0379 20.8803C52.0379 20.8803 52.0163 20.902 51.973 20.902H51.9298H51.8217H51.8001H51.7785H51.6704H51.5839C51.5623 20.902 51.5623 20.902 51.5406 20.8803C51.5406 20.8803 51.519 20.8586 51.4974 20.8586H51.4109C51.4109 20.8153 51.3677 20.8153 51.3461 20.8153C51.3245 20.8153 51.3245 20.8153 51.3028 20.7936C51.3028 20.7936 51.2812 20.7719 51.2596 20.7719C51.238 20.7719 51.238 20.7719 51.2164 20.7502C51.1947 20.7285 51.1947 20.7285 51.1731 20.7285C51.1515 20.7285 51.1515 20.7285 51.1515 20.7069C51.1515 20.7069 51.1515 20.6852 51.1299 20.6852L51.0218 20.6418L51.0002 20.6201C50.9569 20.6201 50.9353 20.5984 50.8921 20.5768L50.8705 20.5551L50.7624 20.5117C50.7624 20.49 50.7624 20.49 50.7407 20.49C50.7407 20.49 50.7191 20.49 50.7191 20.4683C50.6975 20.4683 50.6759 20.4467 50.6326 20.425L50.611 20.3816L50.5894 20.3382L41.4228 10.0173V11.6869V12.0989V19.2541C41.4228 19.7095 41.2714 20.0781 40.9472 20.4033C40.6229 20.7285 40.2553 20.8803 39.8013 20.8803C39.3473 20.8803 38.9582 20.7285 38.6555 20.4033C38.3528 20.0781 38.1799 19.7095 38.1799 19.2541V12.0989V11.6869V5.74588V5.70251V5.5941L38.2015 5.57242C38.2447 5.18213 38.4177 4.83521 38.7204 4.53165C39.0446 4.2281 39.4338 4.098 39.8878 4.11969C40.3418 4.14137 40.7093 4.31483 41.012 4.66175L50.1786 14.961V12.0989V11.6869V5.74588C50.1786 5.29054 50.33 4.90026 50.6543 4.5967C50.9785 4.29315 51.3245 4.11969 51.7785 4.11969Z" fill="#040200"/>
<path d="M57.6805 3.27405C57.2265 3.27405 56.859 3.12227 56.5347 2.79704C56.232 2.4718 56.0591 2.10319 56.0591 1.64786C56.0591 1.19253 56.2104 0.823923 56.5347 0.498684C56.8373 0.173445 57.2265 0.0216675 57.6805 0.0216675C58.1345 0.0216675 58.5237 0.173445 58.8263 0.498684C59.1506 0.823923 59.302 1.19253 59.302 1.64786C59.302 2.10319 59.1506 2.4718 58.8263 2.79704C58.502 3.12227 58.1345 3.27405 57.6805 3.27405ZM57.6805 5.22548C58.1345 5.22548 58.5237 5.37726 58.8263 5.7025C59.1506 6.02774 59.302 6.41803 59.302 6.85168V13.5299V13.7034V13.8551V14.549V19.1457C59.302 19.601 59.1506 19.9913 58.8263 20.2949C58.502 20.5984 58.1129 20.7719 57.6805 20.7719C57.2481 20.7719 56.859 20.6201 56.5347 20.2949C56.2104 19.9696 56.0591 19.5793 56.0591 19.1457V14.5924V13.8985V13.7467V13.5516V6.87336C56.0591 6.41803 56.2104 6.02774 56.5347 5.72418C56.8373 5.39894 57.2265 5.22548 57.6805 5.22548Z" fill="#040200"/>
<path d="M76.9434 5.59403C77.5271 5.98432 78.046 6.46133 78.5216 6.98171C78.9973 7.5021 79.3648 8.08753 79.6675 8.69464C79.9917 9.32343 80.2296 9.97391 80.3809 10.6461C80.5322 11.3182 80.6187 12.0121 80.5971 12.7059C80.5539 13.5949 80.4025 14.4622 80.0998 15.2861C79.7972 16.1318 79.3864 16.9123 78.8459 17.6062C78.1757 18.4952 77.3542 19.2107 76.3813 19.7527C75.4085 20.2948 74.3923 20.6417 73.2898 20.7718C72.1872 20.9019 71.1062 20.8369 70.0252 20.5333C68.9659 20.2298 67.993 19.7527 67.1066 19.0806V19.1023V23.3954C67.1066 23.8508 66.9553 24.2194 66.631 24.5446C66.3067 24.8698 65.9392 25.0216 65.4852 25.0216C65.0312 25.0216 64.642 24.8698 64.3393 24.5446C64.015 24.241 63.8637 23.8508 63.8637 23.3954V12.5541V12.3807C63.8637 12.2506 63.8637 12.0988 63.8853 11.9687C63.8853 11.8386 63.9069 11.7085 63.9286 11.5567C63.9934 10.8412 64.1664 10.1474 64.4258 9.49689C64.6852 8.82473 65.0312 8.21762 65.4419 7.63219C65.8527 7.06844 66.3283 6.54806 66.8688 6.09273C67.4093 5.6374 68.0146 5.24711 68.6416 4.94355C69.982 4.31476 71.3872 4.05457 72.8574 4.18466C74.3707 4.29308 75.7111 4.77009 76.9434 5.59403ZM77.3542 12.8577C77.4407 11.6435 77.138 10.5593 76.4462 9.58362C76.1003 9.08492 75.6895 8.65127 75.1923 8.30435C74.695 7.95743 74.1761 7.69724 73.5924 7.54546C72.425 7.22022 71.2792 7.28527 70.1982 7.78397C70.3279 7.71892 70.4792 7.65387 70.6089 7.58883C70.7387 7.52378 70.89 7.48041 71.0197 7.41537C70.8468 7.48041 70.6738 7.54546 70.5225 7.63219C70.3711 7.71892 70.1982 7.78397 70.0468 7.8707C69.3983 8.15257 68.8578 8.56454 68.3822 9.12829C67.7768 9.84381 67.3877 10.6461 67.1931 11.5784C66.9985 12.5108 67.085 13.3998 67.3877 14.2887C67.6255 14.9392 67.993 15.5463 68.4686 16.0667C68.9443 16.5871 69.528 16.9991 70.1766 17.2809C70.8251 17.5628 71.517 17.6929 72.2304 17.6929C72.9438 17.6929 73.614 17.5411 74.2842 17.2593C74.5653 17.1292 74.8247 16.9774 75.0842 16.8256C75.3436 16.6738 75.5814 16.4787 75.7976 16.2835C76.2516 15.8282 76.6191 15.3078 76.8786 14.7441C77.1812 14.1153 77.3326 13.4865 77.3542 12.8577Z" fill="#040200"/>
<path d="M97.7196 4.11969C98.1736 4.11969 98.5412 4.27147 98.8654 4.59671C99.1681 4.92194 99.3411 5.31223 99.3411 5.74588V12.5108C99.3411 13.66 99.1249 14.7441 98.6709 15.7415C98.2385 16.7606 97.6331 17.6496 96.8765 18.3868C96.1198 19.1457 95.2334 19.7311 94.2389 20.1865C93.2228 20.6201 92.1418 20.8586 91.0176 20.8586C89.8502 20.8586 88.7692 20.6418 87.7531 20.1865C86.737 19.7528 85.8506 19.1457 85.1155 18.3868C84.3588 17.6279 83.7751 16.7389 83.3211 15.7415C82.8887 14.7225 82.6509 13.6383 82.6509 12.5108V5.74588C82.6509 5.29055 82.8022 4.90026 83.1265 4.59671C83.4508 4.29315 83.84 4.11969 84.2724 4.11969C84.7048 4.11969 85.0939 4.27147 85.4182 4.59671C85.7425 4.92194 85.8938 5.31223 85.8938 5.74588V12.4892C85.8938 13.2047 86.0235 13.8552 86.3046 14.484C86.564 15.0911 86.9315 15.6331 87.3856 16.1101C87.8396 16.5872 88.38 16.9558 89.007 17.216C89.634 17.4762 90.3042 17.6279 90.996 17.6279C91.6878 17.6279 92.3364 17.4978 92.9634 17.216C93.5903 16.9558 94.1308 16.5872 94.6064 16.1101C95.082 15.6331 95.4496 15.1128 95.709 14.484C95.9684 13.8768 96.1198 13.2047 96.1198 12.4892H96.0982V5.74588C96.0982 5.29055 96.2495 4.92194 96.5738 4.59671C96.8981 4.27147 97.2872 4.11969 97.7196 4.11969Z" fill="#040200"/>
<path d="M118.669 18.1266C118.971 18.4302 119.144 18.7988 119.144 19.2541C119.144 19.7095 118.993 20.0781 118.669 20.4033C118.344 20.7285 117.977 20.8803 117.523 20.8803H104.054C103.6 20.8803 103.233 20.7285 102.908 20.4033C102.584 20.0781 102.433 19.7095 102.433 19.2541C102.433 18.9289 102.519 18.6036 102.714 18.3218L102.865 18.17L113.653 7.32871H104.076C103.622 7.32871 103.254 7.17693 102.951 6.87338C102.649 6.56982 102.497 6.20122 102.497 5.74588C102.497 5.29055 102.649 4.92194 102.951 4.59671C103.254 4.29315 103.622 4.11969 104.076 4.11969H117.566C118.02 4.11969 118.388 4.27147 118.69 4.59671C118.993 4.90026 119.144 5.29055 119.144 5.74588C119.144 6.07112 119.058 6.39636 118.863 6.67823C118.82 6.7216 118.798 6.76496 118.755 6.80833C118.712 6.85169 118.669 6.91674 118.604 6.96011L113.848 11.7303V11.6869L107.881 17.6713H117.48C117.977 17.6713 118.344 17.8231 118.669 18.1266Z" fill="#040200"/>
<path d="M137.737 18.1266C138.04 18.4302 138.213 18.7988 138.213 19.2541C138.213 19.7095 138.061 20.0781 137.737 20.4033C137.413 20.7285 137.045 20.8803 136.591 20.8803H123.122C122.668 20.8803 122.301 20.7285 121.977 20.4033C121.652 20.0781 121.501 19.7095 121.501 19.2541C121.501 18.9289 121.587 18.6036 121.782 18.3218L121.933 18.17L132.721 7.32871H123.144C122.69 7.32871 122.322 7.17693 122.02 6.87338C121.717 6.56982 121.566 6.20122 121.566 5.74588C121.566 5.29055 121.717 4.92194 122.02 4.59671C122.322 4.29315 122.69 4.11969 123.144 4.11969H136.634C137.088 4.11969 137.456 4.27147 137.759 4.59671C138.061 4.90026 138.213 5.29055 138.213 5.74588C138.213 6.07112 138.126 6.39636 137.932 6.67823C137.888 6.7216 137.867 6.76496 137.824 6.80833C137.78 6.85169 137.737 6.91674 137.672 6.96011L132.916 11.7303V11.6869L126.949 17.6713H136.548C137.045 17.6713 137.434 17.8231 137.737 18.1266Z" fill="#040200"/>
<path d="M149.26 19.2541C149.26 19.6878 149.109 20.0564 148.806 20.36C148.504 20.6635 148.136 20.837 147.704 20.8586H147.66H147.639H147.487C146.363 20.8153 145.304 20.5768 144.331 20.1214C143.358 19.6661 142.493 19.059 141.758 18.3218C141.023 17.5846 140.439 16.6956 140.029 15.6982C139.596 14.7008 139.38 13.6384 139.38 12.4892V5.72422C139.38 5.26888 139.531 4.90028 139.856 4.57504C140.18 4.27148 140.548 4.09802 141.002 4.09802C141.456 4.09802 141.845 4.2498 142.169 4.57504C142.493 4.87859 142.645 5.26888 142.645 5.72422L142.623 12.4892C142.623 13.183 142.753 13.8335 143.012 14.4406C143.272 15.0477 143.618 15.5898 144.072 16.0451C144.526 16.5005 145.023 16.8691 145.628 17.1726C146.233 17.4545 146.86 17.6063 147.531 17.6279H147.66C148.114 17.6279 148.504 17.7797 148.806 18.105C149.109 18.4302 149.26 18.7988 149.26 19.2541Z" fill="#040200"/>
<path d="M166.923 12.5109C166.902 12.9662 166.729 13.3349 166.426 13.6601C166.102 13.9636 165.713 14.1371 165.28 14.1588H153.714C153.779 14.3756 153.887 14.5924 153.995 14.8093C154.081 14.9827 154.168 15.1562 154.254 15.308C154.341 15.4597 154.427 15.6115 154.514 15.785C154.427 15.6549 154.341 15.5031 154.276 15.373C154.211 15.2429 154.146 15.1128 154.06 14.961C154.341 15.4597 154.687 15.9151 155.119 16.3054C155.551 16.6956 156.027 17.0209 156.568 17.2377C157.13 17.4762 157.778 17.628 158.47 17.6497H158.578C159.032 17.6497 159.4 17.8015 159.702 18.105C160.005 18.4086 160.156 18.7772 160.156 19.2325C160.156 19.6878 160.005 20.0564 159.702 20.3817C159.4 20.6852 159.032 20.8587 158.578 20.8587C158.47 20.8587 158.384 20.8587 158.275 20.8587C158.167 20.8587 158.081 20.8587 157.994 20.837C157.259 20.7937 156.568 20.6419 155.876 20.4034C155.184 20.1649 154.535 19.8396 153.952 19.4493C153.346 19.059 152.806 18.6037 152.33 18.0617C151.855 17.5196 151.444 16.9125 151.119 16.262C150.471 14.961 150.19 13.595 150.255 12.1423C150.32 10.6896 150.73 9.34526 151.487 8.13103C151.552 8.02262 151.638 7.91421 151.703 7.8058C151.79 7.69738 151.855 7.58897 151.941 7.48056C152.59 6.61325 153.368 5.89773 154.276 5.35567C155.184 4.8136 156.178 4.445 157.216 4.24985C158.557 4.03303 159.854 4.14144 161.151 4.55341C162.448 4.96538 163.572 5.65922 164.502 6.63494C165.259 7.41551 165.864 8.30449 166.275 9.28021C166.707 10.2776 166.902 11.3184 166.902 12.4025V12.4459V12.5109H166.923ZM155.833 8.15272C155.335 8.47796 154.903 8.88992 154.535 9.36694C154.168 9.84396 153.887 10.3643 153.714 10.9064H163.464C163.378 10.6462 163.248 10.3643 163.097 10.0825C162.772 9.45367 162.318 8.93329 161.756 8.47796C161.194 8.0443 160.567 7.71907 159.875 7.52392C159.205 7.32878 158.513 7.28541 157.821 7.39383C157.108 7.52392 156.438 7.76243 155.833 8.15272Z" fill="#040200"/>
</svg>
